<mxfile host="app.diagrams.net" modified="2020-12-19T02:51:41.042Z" agent="5.0 (Macintosh; Intel Mac OS X 10_15_6) AppleWebKit/537.36 (KHTML, like Gecko) Chrome/87.0.4280.67 Safari/537.36" etag="WsH8IsJlFtsGPLSm2yMQ" version="14.1.1" type="github">
  <diagram id="0iAqYNN2iNlclvPPU9rL" name="Page-1">
    <mxGraphModel dx="786" dy="426" grid="1" gridSize="10" guides="1" tooltips="1" connect="1" arrows="1" fold="1" page="1" pageScale="1" pageWidth="827" pageHeight="1169" math="0" shadow="0">
      <root>
        <mxCell id="0" />
        <mxCell id="1" parent="0" />
        <mxCell id="CHdyuVchqa2uw6LGRK5T-1" value="" style="shape=table;html=1;whiteSpace=wrap;startSize=0;container=1;collapsible=0;childLayout=tableLayout;strokeColor=#b85450;comic=1;fontFamily=Architects Daughter;fontSource=https%3A%2F%2Ffonts.googleapis.com%2Fcss%3Ffamily%3DArchitects%2BDaughter;fillColor=#FA7F72;" parent="1" vertex="1">
          <mxGeometry x="310" y="59" width="60" height="320" as="geometry" />
        </mxCell>
        <mxCell id="CHdyuVchqa2uw6LGRK5T-2" value="" style="shape=partialRectangle;html=1;whiteSpace=wrap;collapsible=0;dropTarget=0;pointerEvents=0;fillColor=none;top=0;left=0;bottom=0;right=0;points=[[0,0.5],[1,0.5]];portConstraint=eastwest;" parent="CHdyuVchqa2uw6LGRK5T-1" vertex="1">
          <mxGeometry width="60" height="40" as="geometry" />
        </mxCell>
        <mxCell id="CHdyuVchqa2uw6LGRK5T-3" value="&lt;font face=&quot;Architects Daughter&quot; data-font-src=&quot;https://fonts.googleapis.com/css?family=Architects+Daughter&quot;&gt;{sel, imp}&lt;/font&gt;" style="shape=partialRectangle;html=1;whiteSpace=wrap;connectable=0;overflow=hidden;fillColor=none;top=0;left=0;bottom=0;right=0;" parent="CHdyuVchqa2uw6LGRK5T-2" vertex="1">
          <mxGeometry width="60" height="40" as="geometry" />
        </mxCell>
        <mxCell id="CHdyuVchqa2uw6LGRK5T-4" value="" style="shape=partialRectangle;html=1;whiteSpace=wrap;collapsible=0;dropTarget=0;pointerEvents=0;fillColor=none;top=0;left=0;bottom=0;right=0;points=[[0,0.5],[1,0.5]];portConstraint=eastwest;" parent="CHdyuVchqa2uw6LGRK5T-1" vertex="1">
          <mxGeometry y="40" width="60" height="40" as="geometry" />
        </mxCell>
        <mxCell id="CHdyuVchqa2uw6LGRK5T-5" value="&lt;font data-font-src=&quot;https://fonts.googleapis.com/css?family=Architects+Daughter&quot; face=&quot;Architects Daughter&quot;&gt;empty&lt;/font&gt;" style="shape=partialRectangle;html=1;whiteSpace=wrap;connectable=0;overflow=hidden;top=0;left=0;bottom=0;right=0;strokeColor=#BD7000;fontColor=#ffffff;fillColor=#FFC93C;" parent="CHdyuVchqa2uw6LGRK5T-4" vertex="1">
          <mxGeometry width="60" height="40" as="geometry" />
        </mxCell>
        <mxCell id="CHdyuVchqa2uw6LGRK5T-6" value="" style="shape=partialRectangle;html=1;whiteSpace=wrap;collapsible=0;dropTarget=0;pointerEvents=0;fillColor=none;top=0;left=0;bottom=0;right=0;points=[[0,0.5],[1,0.5]];portConstraint=eastwest;" parent="CHdyuVchqa2uw6LGRK5T-1" vertex="1">
          <mxGeometry y="80" width="60" height="40" as="geometry" />
        </mxCell>
        <mxCell id="CHdyuVchqa2uw6LGRK5T-7" value="&lt;span&gt;&lt;font face=&quot;Architects Daughter&quot; data-font-src=&quot;https://fonts.googleapis.com/css?family=Architects+Daughter&quot;&gt;{sel, imp}&lt;/font&gt;&lt;/span&gt;" style="shape=partialRectangle;html=1;whiteSpace=wrap;connectable=0;overflow=hidden;fillColor=none;top=0;left=0;bottom=0;right=0;" parent="CHdyuVchqa2uw6LGRK5T-6" vertex="1">
          <mxGeometry width="60" height="40" as="geometry" />
        </mxCell>
        <mxCell id="CHdyuVchqa2uw6LGRK5T-8" value="" style="shape=partialRectangle;html=1;whiteSpace=wrap;collapsible=0;dropTarget=0;pointerEvents=0;fillColor=none;top=0;left=0;bottom=0;right=0;points=[[0,0.5],[1,0.5]];portConstraint=eastwest;" parent="CHdyuVchqa2uw6LGRK5T-1" vertex="1">
          <mxGeometry y="120" width="60" height="40" as="geometry" />
        </mxCell>
        <mxCell id="CHdyuVchqa2uw6LGRK5T-9" value="&lt;font face=&quot;Architects Daughter&quot; data-font-src=&quot;https://fonts.googleapis.com/css?family=Architects+Daughter&quot;&gt;empty&lt;/font&gt;" style="shape=partialRectangle;html=1;whiteSpace=wrap;connectable=0;overflow=hidden;top=0;left=0;bottom=0;right=0;strokeColor=#BD7000;fontColor=#ffffff;fillColor=#FFC93C;" parent="CHdyuVchqa2uw6LGRK5T-8" vertex="1">
          <mxGeometry width="60" height="40" as="geometry" />
        </mxCell>
        <mxCell id="CHdyuVchqa2uw6LGRK5T-10" value="" style="shape=partialRectangle;html=1;whiteSpace=wrap;collapsible=0;dropTarget=0;pointerEvents=0;fillColor=none;top=0;left=0;bottom=0;right=0;points=[[0,0.5],[1,0.5]];portConstraint=eastwest;" parent="CHdyuVchqa2uw6LGRK5T-1" vertex="1">
          <mxGeometry y="160" width="60" height="40" as="geometry" />
        </mxCell>
        <mxCell id="CHdyuVchqa2uw6LGRK5T-11" value="&lt;span&gt;&lt;font face=&quot;Architects Daughter&quot; data-font-src=&quot;https://fonts.googleapis.com/css?family=Architects+Daughter&quot;&gt;{sel, imp}&lt;/font&gt;&lt;/span&gt;" style="shape=partialRectangle;html=1;whiteSpace=wrap;connectable=0;overflow=hidden;top=0;left=0;bottom=0;right=0;strokeColor=#82b366;backgroundOutline=0;labelBorderColor=none;fillColor=#28ABB9;" parent="CHdyuVchqa2uw6LGRK5T-10" vertex="1">
          <mxGeometry width="60" height="40" as="geometry" />
        </mxCell>
        <mxCell id="CHdyuVchqa2uw6LGRK5T-12" value="" style="shape=partialRectangle;html=1;whiteSpace=wrap;collapsible=0;dropTarget=0;pointerEvents=0;fillColor=none;top=0;left=0;bottom=0;right=0;points=[[0,0.5],[1,0.5]];portConstraint=eastwest;" parent="CHdyuVchqa2uw6LGRK5T-1" vertex="1">
          <mxGeometry y="200" width="60" height="40" as="geometry" />
        </mxCell>
        <mxCell id="CHdyuVchqa2uw6LGRK5T-13" value="&lt;span&gt;&lt;font face=&quot;Architects Daughter&quot; data-font-src=&quot;https://fonts.googleapis.com/css?family=Architects+Daughter&quot;&gt;{sel, imp}&lt;/font&gt;&lt;/span&gt;" style="shape=partialRectangle;html=1;whiteSpace=wrap;connectable=0;overflow=hidden;fillColor=none;top=0;left=0;bottom=0;right=0;" parent="CHdyuVchqa2uw6LGRK5T-12" vertex="1">
          <mxGeometry width="60" height="40" as="geometry" />
        </mxCell>
        <mxCell id="CHdyuVchqa2uw6LGRK5T-14" value="" style="shape=partialRectangle;html=1;whiteSpace=wrap;collapsible=0;dropTarget=0;pointerEvents=0;fillColor=none;top=0;left=0;bottom=0;right=0;points=[[0,0.5],[1,0.5]];portConstraint=eastwest;" parent="CHdyuVchqa2uw6LGRK5T-1" vertex="1">
          <mxGeometry y="240" width="60" height="40" as="geometry" />
        </mxCell>
        <mxCell id="CHdyuVchqa2uw6LGRK5T-15" value="&lt;span&gt;&lt;font face=&quot;Architects Daughter&quot; data-font-src=&quot;https://fonts.googleapis.com/css?family=Architects+Daughter&quot;&gt;{sel, imp}&lt;/font&gt;&lt;/span&gt;" style="shape=partialRectangle;html=1;whiteSpace=wrap;connectable=0;overflow=hidden;fillColor=none;top=0;left=0;bottom=0;right=0;" parent="CHdyuVchqa2uw6LGRK5T-14" vertex="1">
          <mxGeometry width="60" height="40" as="geometry" />
        </mxCell>
        <mxCell id="CHdyuVchqa2uw6LGRK5T-16" value="" style="shape=partialRectangle;html=1;whiteSpace=wrap;collapsible=0;dropTarget=0;pointerEvents=0;fillColor=none;top=0;left=0;bottom=0;right=0;points=[[0,0.5],[1,0.5]];portConstraint=eastwest;" parent="CHdyuVchqa2uw6LGRK5T-1" vertex="1">
          <mxGeometry y="280" width="60" height="40" as="geometry" />
        </mxCell>
        <mxCell id="CHdyuVchqa2uw6LGRK5T-17" value="&lt;font face=&quot;Architects Daughter&quot; data-font-src=&quot;https://fonts.googleapis.com/css?family=Architects+Daughter&quot;&gt;empty&lt;/font&gt;" style="shape=partialRectangle;html=1;whiteSpace=wrap;connectable=0;overflow=hidden;top=0;left=0;bottom=0;right=0;strokeColor=#BD7000;fontColor=#ffffff;fillColor=#FFC93C;" parent="CHdyuVchqa2uw6LGRK5T-16" vertex="1">
          <mxGeometry width="60" height="40" as="geometry" />
        </mxCell>
        <mxCell id="CHdyuVchqa2uw6LGRK5T-22" style="edgeStyle=orthogonalEdgeStyle;rounded=0;orthogonalLoop=1;jettySize=auto;html=1;entryX=0;entryY=0.5;entryDx=0;entryDy=0;" parent="1" edge="1">
          <mxGeometry relative="1" as="geometry">
            <mxPoint x="245" y="239" as="sourcePoint" />
            <mxPoint x="298" y="239" as="targetPoint" />
          </mxGeometry>
        </mxCell>
        <mxCell id="CHdyuVchqa2uw6LGRK5T-21" value="&lt;font data-font-src=&quot;https://fonts.googleapis.com/css?family=Pacifico&quot;&gt;cache index&lt;/font&gt;" style="text;html=1;align=center;verticalAlign=middle;resizable=0;points=[];autosize=1;fontFamily=Architects Daughter;fontSource=https%3A%2F%2Ffonts.googleapis.com%2Fcss%3Ffamily%3DArchitects%2BDaughter;" parent="1" vertex="1">
          <mxGeometry x="150" y="229" width="80" height="20" as="geometry" />
        </mxCell>
        <mxCell id="CHdyuVchqa2uw6LGRK5T-23" value="buckets" style="text;html=1;align=center;verticalAlign=middle;resizable=0;points=[];autosize=1;fontFamily=Architects Daughter;fontSize=14;fontStyle=1;fontSource=https%3A%2F%2Ffonts.googleapis.com%2Fcss%3Ffamily%3DArchitects%2BDaughter;" parent="1" vertex="1">
          <mxGeometry x="305" y="33" width="70" height="20" as="geometry" />
        </mxCell>
        <mxCell id="CHdyuVchqa2uw6LGRK5T-29" value="第一次" style="text;html=1;align=center;verticalAlign=middle;resizable=0;points=[];autosize=1;fontSize=12;fontFamily=Menlo;" parent="1" vertex="1">
          <mxGeometry x="315" y="389" width="50" height="20" as="geometry" />
        </mxCell>
        <mxCell id="CHdyuVchqa2uw6LGRK5T-32" style="edgeStyle=orthogonalEdgeStyle;rounded=0;orthogonalLoop=1;jettySize=auto;html=1;entryX=0;entryY=0.5;entryDx=0;entryDy=0;fontFamily=Menlo;fontSize=12;" parent="1" edge="1">
          <mxGeometry relative="1" as="geometry">
            <mxPoint x="246" y="79" as="sourcePoint" />
            <mxPoint x="304" y="79" as="targetPoint" />
          </mxGeometry>
        </mxCell>
        <mxCell id="CHdyuVchqa2uw6LGRK5T-30" value="table header" style="text;html=1;align=center;verticalAlign=middle;resizable=0;points=[];autosize=1;fontSize=12;fontFamily=Architects Daughter;fontSource=https%3A%2F%2Ffonts.googleapis.com%2Fcss%3Ffamily%3DArchitects%2BDaughter;" parent="1" vertex="1">
          <mxGeometry x="150" y="70" width="80" height="20" as="geometry" />
        </mxCell>
        <mxCell id="CHdyuVchqa2uw6LGRK5T-33" value="" style="endArrow=classic;html=1;fontFamily=Pacifico;fontSource=https%3A%2F%2Ffonts.googleapis.com%2Fcss%3Ffamily%3DPacifico;fontSize=12;" parent="1" edge="1">
          <mxGeometry width="50" height="50" relative="1" as="geometry">
            <mxPoint x="270" y="234" as="sourcePoint" />
            <mxPoint x="270" y="84" as="targetPoint" />
          </mxGeometry>
        </mxCell>
        <mxCell id="CHdyuVchqa2uw6LGRK5T-34" value="向上查找" style="text;html=1;align=center;verticalAlign=middle;resizable=0;points=[];autosize=1;fontSize=12;fontFamily=Pacifico;" parent="1" vertex="1">
          <mxGeometry x="200" y="149" width="60" height="20" as="geometry" />
        </mxCell>
        <mxCell id="CHdyuVchqa2uw6LGRK5T-35" value="" style="shape=table;html=1;whiteSpace=wrap;startSize=0;container=1;collapsible=0;childLayout=tableLayout;strokeColor=#b85450;comic=1;fontFamily=Architects Daughter;fontSource=https%3A%2F%2Ffonts.googleapis.com%2Fcss%3Ffamily%3DArchitects%2BDaughter;fillColor=#FA7F72;" parent="1" vertex="1">
          <mxGeometry x="640" y="59" width="60" height="320" as="geometry" />
        </mxCell>
        <mxCell id="CHdyuVchqa2uw6LGRK5T-36" value="" style="shape=partialRectangle;html=1;whiteSpace=wrap;collapsible=0;dropTarget=0;pointerEvents=0;fillColor=none;top=0;left=0;bottom=0;right=0;points=[[0,0.5],[1,0.5]];portConstraint=eastwest;" parent="CHdyuVchqa2uw6LGRK5T-35" vertex="1">
          <mxGeometry width="60" height="40" as="geometry" />
        </mxCell>
        <mxCell id="CHdyuVchqa2uw6LGRK5T-37" value="&lt;font face=&quot;Architects Daughter&quot; data-font-src=&quot;https://fonts.googleapis.com/css?family=Architects+Daughter&quot;&gt;{sel, imp}&lt;/font&gt;" style="shape=partialRectangle;html=1;whiteSpace=wrap;connectable=0;overflow=hidden;fillColor=none;top=0;left=0;bottom=0;right=0;" parent="CHdyuVchqa2uw6LGRK5T-36" vertex="1">
          <mxGeometry width="60" height="40" as="geometry" />
        </mxCell>
        <mxCell id="CHdyuVchqa2uw6LGRK5T-38" value="" style="shape=partialRectangle;html=1;whiteSpace=wrap;collapsible=0;dropTarget=0;pointerEvents=0;fillColor=none;top=0;left=0;bottom=0;right=0;points=[[0,0.5],[1,0.5]];portConstraint=eastwest;" parent="CHdyuVchqa2uw6LGRK5T-35" vertex="1">
          <mxGeometry y="40" width="60" height="40" as="geometry" />
        </mxCell>
        <mxCell id="CHdyuVchqa2uw6LGRK5T-39" value="&lt;font data-font-src=&quot;https://fonts.googleapis.com/css?family=Pacifico&quot;&gt;empty&lt;/font&gt;" style="shape=partialRectangle;html=1;whiteSpace=wrap;connectable=0;overflow=hidden;top=0;left=0;bottom=0;right=0;strokeColor=#BD7000;fontColor=#ffffff;fillColor=#FFC93C;fontFamily=Architects Daughter;fontSource=https%3A%2F%2Ffonts.googleapis.com%2Fcss%3Ffamily%3DArchitects%2BDaughter;" parent="CHdyuVchqa2uw6LGRK5T-38" vertex="1">
          <mxGeometry width="60" height="40" as="geometry" />
        </mxCell>
        <mxCell id="CHdyuVchqa2uw6LGRK5T-40" value="" style="shape=partialRectangle;html=1;whiteSpace=wrap;collapsible=0;dropTarget=0;pointerEvents=0;fillColor=none;top=0;left=0;bottom=0;right=0;points=[[0,0.5],[1,0.5]];portConstraint=eastwest;" parent="CHdyuVchqa2uw6LGRK5T-35" vertex="1">
          <mxGeometry y="80" width="60" height="40" as="geometry" />
        </mxCell>
        <mxCell id="CHdyuVchqa2uw6LGRK5T-41" value="&lt;span&gt;&lt;font face=&quot;Architects Daughter&quot; data-font-src=&quot;https://fonts.googleapis.com/css?family=Architects+Daughter&quot;&gt;{sel, imp}&lt;/font&gt;&lt;/span&gt;" style="shape=partialRectangle;html=1;whiteSpace=wrap;connectable=0;overflow=hidden;fillColor=none;top=0;left=0;bottom=0;right=0;" parent="CHdyuVchqa2uw6LGRK5T-40" vertex="1">
          <mxGeometry width="60" height="40" as="geometry" />
        </mxCell>
        <mxCell id="CHdyuVchqa2uw6LGRK5T-42" value="" style="shape=partialRectangle;html=1;whiteSpace=wrap;collapsible=0;dropTarget=0;pointerEvents=0;fillColor=none;top=0;left=0;bottom=0;right=0;points=[[0,0.5],[1,0.5]];portConstraint=eastwest;" parent="CHdyuVchqa2uw6LGRK5T-35" vertex="1">
          <mxGeometry y="120" width="60" height="40" as="geometry" />
        </mxCell>
        <mxCell id="CHdyuVchqa2uw6LGRK5T-43" value="&lt;span style=&quot;&quot;&gt;empty&lt;/span&gt;" style="shape=partialRectangle;html=1;whiteSpace=wrap;connectable=0;overflow=hidden;top=0;left=0;bottom=0;right=0;strokeColor=#BD7000;fontColor=#ffffff;fillColor=#FFC93C;fontFamily=Architects Daughter;fontSource=https%3A%2F%2Ffonts.googleapis.com%2Fcss%3Ffamily%3DArchitects%2BDaughter;" parent="CHdyuVchqa2uw6LGRK5T-42" vertex="1">
          <mxGeometry width="60" height="40" as="geometry" />
        </mxCell>
        <mxCell id="CHdyuVchqa2uw6LGRK5T-44" value="" style="shape=partialRectangle;html=1;whiteSpace=wrap;collapsible=0;dropTarget=0;pointerEvents=0;fillColor=none;top=0;left=0;bottom=0;right=0;points=[[0,0.5],[1,0.5]];portConstraint=eastwest;" parent="CHdyuVchqa2uw6LGRK5T-35" vertex="1">
          <mxGeometry y="160" width="60" height="40" as="geometry" />
        </mxCell>
        <mxCell id="CHdyuVchqa2uw6LGRK5T-45" value="&lt;span&gt;&lt;font face=&quot;Architects Daughter&quot; data-font-src=&quot;https://fonts.googleapis.com/css?family=Architects+Daughter&quot;&gt;{sel, imp}&lt;/font&gt;&lt;/span&gt;" style="shape=partialRectangle;html=1;whiteSpace=wrap;connectable=0;overflow=hidden;top=0;left=0;bottom=0;right=0;strokeColor=#82b366;backgroundOutline=0;labelBorderColor=none;fillColor=#28ABB9;" parent="CHdyuVchqa2uw6LGRK5T-44" vertex="1">
          <mxGeometry width="60" height="40" as="geometry" />
        </mxCell>
        <mxCell id="CHdyuVchqa2uw6LGRK5T-46" value="" style="shape=partialRectangle;html=1;whiteSpace=wrap;collapsible=0;dropTarget=0;pointerEvents=0;fillColor=none;top=0;left=0;bottom=0;right=0;points=[[0,0.5],[1,0.5]];portConstraint=eastwest;" parent="CHdyuVchqa2uw6LGRK5T-35" vertex="1">
          <mxGeometry y="200" width="60" height="40" as="geometry" />
        </mxCell>
        <mxCell id="CHdyuVchqa2uw6LGRK5T-47" value="&lt;span&gt;{sel, imp}&lt;/span&gt;" style="shape=partialRectangle;html=1;whiteSpace=wrap;connectable=0;overflow=hidden;fillColor=none;top=0;left=0;bottom=0;right=0;fontFamily=Architects Daughter;fontSource=https%3A%2F%2Ffonts.googleapis.com%2Fcss%3Ffamily%3DArchitects%2BDaughter;" parent="CHdyuVchqa2uw6LGRK5T-46" vertex="1">
          <mxGeometry width="60" height="40" as="geometry" />
        </mxCell>
        <mxCell id="CHdyuVchqa2uw6LGRK5T-48" value="" style="shape=partialRectangle;html=1;whiteSpace=wrap;collapsible=0;dropTarget=0;pointerEvents=0;fillColor=none;top=0;left=0;bottom=0;right=0;points=[[0,0.5],[1,0.5]];portConstraint=eastwest;" parent="CHdyuVchqa2uw6LGRK5T-35" vertex="1">
          <mxGeometry y="240" width="60" height="40" as="geometry" />
        </mxCell>
        <mxCell id="CHdyuVchqa2uw6LGRK5T-49" value="&lt;span&gt;{sel, imp}&lt;/span&gt;" style="shape=partialRectangle;html=1;whiteSpace=wrap;connectable=0;overflow=hidden;fillColor=none;top=0;left=0;bottom=0;right=0;fontFamily=Architects Daughter;fontSource=https%3A%2F%2Ffonts.googleapis.com%2Fcss%3Ffamily%3DArchitects%2BDaughter;" parent="CHdyuVchqa2uw6LGRK5T-48" vertex="1">
          <mxGeometry width="60" height="40" as="geometry" />
        </mxCell>
        <mxCell id="CHdyuVchqa2uw6LGRK5T-50" value="" style="shape=partialRectangle;html=1;whiteSpace=wrap;collapsible=0;dropTarget=0;pointerEvents=0;fillColor=none;top=0;left=0;bottom=0;right=0;points=[[0,0.5],[1,0.5]];portConstraint=eastwest;" parent="CHdyuVchqa2uw6LGRK5T-35" vertex="1">
          <mxGeometry y="280" width="60" height="40" as="geometry" />
        </mxCell>
        <mxCell id="CHdyuVchqa2uw6LGRK5T-51" value="&lt;font face=&quot;Architects Daughter&quot; data-font-src=&quot;https://fonts.googleapis.com/css?family=Architects+Daughter&quot;&gt;empty&lt;/font&gt;" style="shape=partialRectangle;html=1;whiteSpace=wrap;connectable=0;overflow=hidden;top=0;left=0;bottom=0;right=0;strokeColor=#BD7000;fontColor=#ffffff;fillColor=#FFC93C;" parent="CHdyuVchqa2uw6LGRK5T-50" vertex="1">
          <mxGeometry width="60" height="40" as="geometry" />
        </mxCell>
        <mxCell id="CHdyuVchqa2uw6LGRK5T-54" value="buckets" style="text;html=1;align=center;verticalAlign=middle;resizable=0;points=[];autosize=1;fontFamily=Architects Daughter;fontSize=14;fontStyle=1;fontSource=https%3A%2F%2Ffonts.googleapis.com%2Fcss%3Ffamily%3DArchitects%2BDaughter;" parent="1" vertex="1">
          <mxGeometry x="635" y="33" width="70" height="20" as="geometry" />
        </mxCell>
        <mxCell id="CHdyuVchqa2uw6LGRK5T-55" value="第二次" style="text;html=1;align=center;verticalAlign=middle;resizable=0;points=[];autosize=1;fontSize=12;fontFamily=Menlo;" parent="1" vertex="1">
          <mxGeometry x="645" y="389" width="50" height="20" as="geometry" />
        </mxCell>
        <mxCell id="CHdyuVchqa2uw6LGRK5T-56" style="edgeStyle=orthogonalEdgeStyle;rounded=0;orthogonalLoop=1;jettySize=auto;html=1;fontFamily=Menlo;fontSize=12;" parent="1" source="CHdyuVchqa2uw6LGRK5T-57" edge="1">
          <mxGeometry relative="1" as="geometry">
            <mxPoint x="630" y="80" as="targetPoint" />
            <Array as="points">
              <mxPoint x="630" y="80" />
              <mxPoint x="630" y="80" />
            </Array>
          </mxGeometry>
        </mxCell>
        <mxCell id="CHdyuVchqa2uw6LGRK5T-57" value="table header" style="text;html=1;align=center;verticalAlign=middle;resizable=0;points=[];autosize=1;fontSize=12;fontFamily=Architects Daughter;fontSource=https%3A%2F%2Ffonts.googleapis.com%2Fcss%3Ffamily%3DArchitects%2BDaughter;" parent="1" vertex="1">
          <mxGeometry x="470" y="70" width="100" height="20" as="geometry" />
        </mxCell>
        <mxCell id="CHdyuVchqa2uw6LGRK5T-58" value="" style="endArrow=classic;html=1;fontFamily=Pacifico;fontSource=https%3A%2F%2Ffonts.googleapis.com%2Fcss%3Ffamily%3DPacifico;fontSize=12;" parent="1" edge="1">
          <mxGeometry width="50" height="50" relative="1" as="geometry">
            <mxPoint x="600" y="353.5" as="sourcePoint" />
            <mxPoint x="600" y="87" as="targetPoint" />
          </mxGeometry>
        </mxCell>
        <mxCell id="CHdyuVchqa2uw6LGRK5T-59" value="向上查找" style="text;html=1;align=center;verticalAlign=middle;resizable=0;points=[];autosize=1;fontSize=12;fontFamily=Pacifico;" parent="1" vertex="1">
          <mxGeometry x="520" y="209" width="60" height="20" as="geometry" />
        </mxCell>
        <mxCell id="CHdyuVchqa2uw6LGRK5T-64" value="" style="endArrow=classic;html=1;fontFamily=Menlo;fontSize=12;" parent="1" edge="1">
          <mxGeometry width="50" height="50" relative="1" as="geometry">
            <mxPoint x="570" y="359" as="sourcePoint" />
            <mxPoint x="635" y="359" as="targetPoint" />
          </mxGeometry>
        </mxCell>
        <mxCell id="CHdyuVchqa2uw6LGRK5T-65" value="table tail" style="text;html=1;align=center;verticalAlign=middle;resizable=0;points=[];autosize=1;fontSize=12;fontFamily=Architects Daughter;fontSource=https%3A%2F%2Ffonts.googleapis.com%2Fcss%3Ffamily%3DArchitects%2BDaughter;" parent="1" vertex="1">
          <mxGeometry x="490" y="349" width="60" height="20" as="geometry" />
        </mxCell>
      </root>
    </mxGraphModel>
  </diagram>
</mxfile>
